<?xml version="1.0" encoding="UTF-8"?>
<svg width="111px" height="111px" viewBox="0 0 111 111" version="1.1" xmlns="http://www.w3.org/2000/svg" xmlns:xlink="http://www.w3.org/1999/xlink">
    <!-- Generator: Sketch 48.2 (47327) - http://www.bohemiancoding.com/sketch -->
    <title>Combined Shape</title>
    <desc>Created with Sketch.</desc>
    <defs></defs>
    <g id="meltline_design" stroke="none" stroke-width="1" fill="none" fill-rule="evenodd" transform="translate(-514.000000, -115.000000)">
        <g id="header" transform="translate(514.000000, 115.000000)" fill="#FFFFFF">
            <path d="M37.6100426,98.7430798 L37.6100426,106.031745 C37.6100426,107.497795 37.1756686,108.692336 36.3069074,109.615404 C35.4381463,110.538473 34.2979144,111 32.8861775,111 C31.5287382,111 30.4156547,110.524898 29.5468935,109.574681 C28.6781324,108.624463 28.2437583,107.443496 28.2437583,106.031745 L28.2437583,99.7212641 C24.8513315,99.499453 21.3803982,98.5517379 17.8506613,96.4850399 C2.35419053,87.4116938 2.99771766,70.9148105 5.64895303,62.8492458 C8.3001884,54.783681 9.17358969,50.0870283 3.68824396,43.5616065 C-1.79710177,37.0361848 -2.47963494,20.8739749 10.8784077,16.3108378 C21.8014974,12.579486 27.5522679,16.3108378 35.3240029,11.3454434 C45.6035294,4.77781038 42.4453125,0 52.0567193,0 C61.668126,0 59.4434226,8.179594 72.6827279,12.579486 C85.9220333,16.9793779 93.8362721,7.03683926 104.107098,16.3108378 C114.377923,25.5848363 111.657997,37.0376912 105.729774,43.5616065 C99.8015517,50.0855219 97.6929158,52.8256628 97.6929158,58.6967046 C97.6929158,64.5677464 105.044068,73.895674 104.495443,82.4896838 C103.946818,91.0836935 94.6668921,101.920732 82.7306087,98.5292242 C70.7943253,95.1377161 70.8349976,91.46421 59.2725986,92.2641082 C52.8260328,92.710088 45.5088589,96.7913816 37.6100426,98.7430798 Z M37.6100426,98.7430798 L37.6100426,47.3267234 L51.0486245,68.5843404 C51.5916002,69.2359182 52.2160129,69.7653171 52.9218814,70.1725532 C53.6277498,70.5797893 54.3336076,70.7562556 55.0394761,70.7019574 C55.7996421,70.7562556 56.5326483,70.5797893 57.2385167,70.1725532 C57.9443852,69.7653171 58.5687979,69.2359182 59.1117736,68.5843404 L72.5503555,48.0597447 L72.5503555,72.2445106 C72.5503555,73.7105605 73.0254521,74.9051018 73.9756596,75.8281702 C74.9258671,76.7512387 76.1611183,77.212766 77.6814504,77.212766 C79.2017824,77.212766 80.4234594,76.7376643 81.3465181,75.7874468 C82.2695769,74.8372293 82.7310993,73.6562624 82.7310993,72.2445106 L82.7310993,33.7251064 C82.7310993,32.3133546 82.2288543,31.1323877 81.2243492,30.1821702 C80.2198441,29.2319527 79.0388896,28.7568511 77.6814504,28.7568511 C76.9212843,28.7568511 76.1747039,28.960466 75.4416867,29.3677021 C74.7086695,29.7749382 74.1249793,30.3043372 73.6905988,30.9559149 L55.4467058,58.2405957 L37.6914886,30.9559149 C37.257108,30.3043372 36.6326953,29.7749382 35.8182317,29.3677021 C35.0037682,28.960466 34.1893168,28.7568511 33.3748532,28.7568511 C31.9631163,28.7568511 30.7550135,29.245527 29.7505084,30.2228936 C28.7460033,31.2002602 28.2437583,32.3676528 28.2437583,33.7251064 L28.2437583,99.7212641 C31.4410881,99.930319 34.5686813,99.494562 37.6100426,98.7430798 Z" id="Combined-Shape"></path>
        </g>
    </g>
</svg>