<?xml version="1.0" encoding="UTF-8"?>
<svg width="80px" height="80px" viewBox="0 0 80 80" version="1.1" xmlns="http://www.w3.org/2000/svg" xmlns:xlink="http://www.w3.org/1999/xlink">
    <!-- Generator: Sketch 48.2 (47327) - http://www.bohemiancoding.com/sketch -->
    <title>Combined Shape</title>
    <desc>Created with Sketch.</desc>
    <defs>
        <linearGradient x1="50%" y1="105.850351%" x2="0%" y2="0%" id="linearGradient-1">
            <stop stop-color="#624EBD" offset="0%"></stop>
            <stop stop-color="#4BC0C9" offset="100%"></stop>
        </linearGradient>
    </defs>
    <g id="meltline_design" stroke="none" stroke-width="1" fill="none" fill-rule="evenodd" transform="translate(-86.000000, -50.000000)">
        <g id="leftNav2" fill="url(#linearGradient-1)">
            <g id="logo" transform="translate(73.000000, 50.000000)">
                <path d="M40.106337,71.1661837 L40.106337,76.4192754 C40.106337,77.475888 39.7932747,78.3368186 39.1671405,79.0020932 C38.5410063,79.6673677 37.7192176,80 36.7017496,80 C35.7234149,80 34.9211926,79.6575844 34.2950584,78.972743 C33.6689242,78.2879015 33.3558619,77.4367542 33.3558619,76.4192754 L33.3558619,71.8711814 C30.9108696,71.7113175 28.409296,71.0282795 25.8653415,69.5387675 C14.6967139,62.999419 15.1605172,51.1097733 17.0713175,45.2967537 C18.9821178,39.4837341 19.6115962,36.0987592 15.6581938,31.3957525 C11.7047915,26.6927458 11.2128757,15.0443062 20.8402938,11.7555588 C28.7127909,9.06629618 32.8574904,11.7555588 38.4587408,8.17689614 C45.8674086,3.44346694 45.9951172,-3.94430453e-30 52.5183562,-7.10542736e-15 C59.0415953,-1.42108547e-14 58.71899,6.89013672 68.383948,9.06629618 C78.0489061,11.2424556 80.6297457,5.07159586 88.0321425,11.7555588 C95.4345393,18.4395216 93.4742319,26.6938315 89.2016391,31.3957525 C84.9290463,36.0976735 83.4093087,38.0725498 83.4093087,42.3039313 C83.4093087,46.5353127 88.7074367,53.2581434 88.3120313,59.4520243 C87.9166259,65.6459052 81.2283907,73.4563836 72.6256639,71.0120534 C64.0229371,68.5677233 64.0522505,65.9201514 55.71899,66.4966546 C51.0728164,66.8180814 45.7991776,69.7595543 40.106337,71.1661837 Z M40.106337,71.1661837 L40.106337,34.1093502 L49.7918014,49.4301553 C50.1831353,49.8997608 50.6331625,50.2813096 51.1418965,50.5748131 C51.6506305,50.8683166 52.1593569,50.9954995 52.6680909,50.9563657 C53.2159583,50.9954995 53.744251,50.8683166 54.252985,50.5748131 C54.761719,50.2813096 55.2117462,49.8997608 55.6030801,49.4301553 L65.2885445,34.6376538 L65.2885445,52.0681158 C65.2885445,53.1247283 65.6309565,53.9856589 66.3157907,54.6509335 C67.0006249,55.316208 67.8908961,55.6488403 68.9866309,55.6488403 C70.0823657,55.6488403 70.9628536,55.3064247 71.6281212,54.6215833 C72.2933887,53.9367418 72.6260175,53.0855945 72.6260175,52.0681158 L72.6260175,24.306383 C72.6260175,23.2889042 72.2640391,22.4377569 71.5400715,21.7529155 C70.8161039,21.068074 69.9649655,20.7256584 68.9866309,20.7256584 C68.4387635,20.7256584 67.9006875,20.872408 67.3723868,21.1659114 C66.8440861,21.4594149 66.4234085,21.8409637 66.1103415,22.3105693 L52.9615898,41.9752041 L40.1650368,22.3105693 C39.8519697,21.8409637 39.4019426,21.4594149 38.8149418,21.1659114 C38.227941,20.872408 37.640949,20.7256584 37.0539483,20.7256584 C36.0364802,20.7256584 35.1657755,21.0778573 34.4418079,21.7822657 C33.7178402,22.486674 33.3558619,23.328038 33.3558619,24.306383 L33.3558619,71.8711814 C35.6602436,72.0218516 37.9143649,71.7077924 40.106337,71.1661837 Z" id="Combined-Shape"></path>
            </g>
        </g>
    </g>
</svg>