<?xml version="1.0" encoding="UTF-8"?>
<svg width="42px" height="80px" viewBox="0 0 42 80" version="1.1" xmlns="http://www.w3.org/2000/svg" xmlns:xlink="http://www.w3.org/1999/xlink">
    <defs></defs>
    <g id="Page-1" stroke="none" stroke-width="1" fill="none" fill-rule="evenodd">
        <path d="M36.35,0 L5.65,0 C2.78819626,0.0109648859 0.470964886,2.32819626 0.46,5.19 L0.46,74.81 C0.470964886,77.6718037 2.78819626,79.9890351 5.65,80 L36.35,80 C39.2118037,79.9890351 41.5290351,77.6718037 41.54,74.81 L41.54,5.19 C41.5290351,2.32819626 39.2118037,0.0109648859 36.35,0 Z M17.71,4.88 L24.29,4.88 C24.6212421,4.8443332 24.9437649,5.00096181 25.1205505,5.28334502 C25.2973361,5.56572823 25.2973361,5.92427177 25.1205505,6.20665498 C24.9437649,6.48903819 24.6212421,6.6456668 24.29,6.61 L17.71,6.61 C17.3787579,6.6456668 17.0562351,6.48903819 16.8794495,6.20665498 C16.7026639,5.92427177 16.7026639,5.56572823 16.8794495,5.28334502 C17.0562351,5.00096181 17.3787579,4.8443332 17.71,4.88 L17.71,4.88 Z M21,77.51 C19.1553689,77.51 17.66,76.0146311 17.66,74.17 C17.66,72.3253689 19.1553689,70.83 21,70.83 C22.8446311,70.83 24.34,72.3253689 24.34,74.17 C24.34,76.0146311 22.8446311,77.51 21,77.51 L21,77.51 Z M38.66,68.3 L3.34,68.3 L3.34,11.7 L38.66,11.7 L38.66,68.3 Z" id="Shape" fill="#000000" fill-rule="nonzero"></path>
    </g>
</svg>