<?xml version="1.0" encoding="UTF-8"?>
<svg width="92px" height="72px" viewBox="0 0 92 72" version="1.1" xmlns="http://www.w3.org/2000/svg" xmlns:xlink="http://www.w3.org/1999/xlink">
    <defs></defs>
    <g id="Page-1" stroke="none" stroke-width="1" fill="none" fill-rule="evenodd">
        <g id="Group" fill-rule="nonzero" fill="#000000">
            <path d="M71.5,19.3 C67,18.1 62.7,18.7 59,21.1 L59,21.1 C55.4,22.3 51.7,23 48,23.1 L48,20.1 C48,17.7 48.6,12.1 54,12.1 C60.1,12.1 64,7.4 64,0.1 L60,0.1 C60,2.5 59.4,8.1 54,8.1 C47.8,8.1 44,12.7 44,20.1 L44,23 C40.4,22.7 36.9,21.9 33.5,20.6 C29.8,18.2 25.4,17.5 20.8,18.8 C14.1,20.6 8,26.1 4.1,33.9 C-2.6,47.2 -0.4,63.1 8.9,69.3 C11.5,71 14.3,71.9 17.4,71.9 C18.8,71.9 20.3,71.7 21.8,71.3 C28.4,69.6 34.3,64.3 38.3,56.9 C43.5,54.7 49.4,54.7 54.6,56.7 L54.6,56.7 C58.5,64 64.4,69.1 70.8,70.8 C75.4,72 79.7,71.3 83.4,68.8 C92.6,62.7 94.7,47.1 88.1,34.1 C84.1,26.5 78.1,21.1 71.5,19.3 Z M81,65.5 C78.3,67.3 75,67.8 71.6,66.9 C66.2,65.5 61.1,60.9 57.8,54.5 C57.5,53.9 56.9,53.4 56.2,53.1 L55.8,53 C49.5,50.5 42.3,50.7 36.1,53.4 C35.5,53.7 35,54.2 34.6,54.8 C31.2,61.3 26,66.1 20.5,67.5 C17,68.4 13.7,67.9 10.9,66 C3.2,60.9 1.7,47.3 7.5,35.7 C10.8,29 16.1,24.2 21.7,22.7 C22.9,22.4 24,22.2 25.1,22.2 C27.4,22.2 29.5,22.8 31.4,24.1 L31.8,24.3 C40.9,27.8 51,28.1 60.2,24.9 L60.7,24.7 L60.9,24.6 C63.7,22.8 66.9,22.3 70.4,23.2 C75.8,24.6 81,29.4 84.3,35.9 C90.1,47.2 88.6,60.5 81,65.5 Z" id="Shape"></path>
            <path d="M69,33.4 C64,33.4 60,37.4 60,42.4 C60,47.4 64,51.4 69,51.4 C74,51.4 78,47.4 78,42.4 C78,37.4 74,33.4 69,33.4 Z M69,47.4 C66.2,47.4 64,45.2 64,42.4 C64,39.6 66.2,37.4 69,37.4 C71.8,37.4 74,39.6 74,42.4 C74,45.2 71.8,47.4 69,47.4 Z" id="Shape"></path>
            <path d="M28,40.6 L24,40.6 L24,36.6 C24,35.5 23.1,34.6 22,34.6 C20.9,34.6 20,35.5 20,36.6 L20,40.6 L16,40.6 C14.9,40.6 14,41.5 14,42.6 C14,43.7 14.9,44.6 16,44.6 L20,44.6 L20,48.6 C20,49.7 20.9,50.6 22,50.6 C23.1,50.6 24,49.7 24,48.6 L24,44.6 L28,44.6 C29.1,44.6 30,43.7 30,42.6 C30,41.5 29.1,40.6 28,40.6 Z" id="Shape"></path>
        </g>
    </g>
</svg>