<?xml version="1.0" encoding="UTF-8"?>
<svg width="51px" height="72px" viewBox="0 0 51 72" version="1.1" xmlns="http://www.w3.org/2000/svg" xmlns:xlink="http://www.w3.org/1999/xlink">
    <defs></defs>
    <g id="Page-1" stroke="none" stroke-width="1" fill="none" fill-rule="evenodd">
        <g id="Group" fill-rule="nonzero" fill="#000000">
            <path d="M34.799,54.697 L16.994,54.697 C15.517,54.697 14.32,56.536 14.32,58.696 C14.32,60.852 15.517,62.697 16.994,62.697 L16.996,62.697 C16.982,62.697 16.982,62.481 16.966,62.506 C16.966,62.506 35.244,62.316 35.19,62.271 C36.479,61.996 37.472,60.475 37.472,58.514 C37.471,56.353 36.273,54.697 34.799,54.697 Z" id="Shape"></path>
            <path d="M25.893,72 C30.811,72 34.789,69.697 34.911,65.697 L16.88,65.697 C16.997,69.697 20.977,72 25.893,72 Z" id="Shape"></path>
            <path d="M25.896,0.025 C12.052,0.025 0.791,11.287 0.791,25.13 C0.791,28.982 1.666,32.834 3.448,36.447 L11.306,50.697 L39.469,50.697 L48.27,36.571 L48.404,36.265 C50.127,32.77 51,29.014 51,25.162 C51,11.319 39.739,0.025 25.896,0.025 Z M43.653,33.521 L36.506,44.698 L14.459,44.698 L8.194,33.64 C6.841,30.892 6.153,28.059 6.153,25.037 C6.153,14.15 15.007,5.342 25.896,5.342 C36.782,5.342 45.638,14.126 45.638,25.013 C45.639,27.989 44.971,30.805 43.653,33.521 Z" id="Shape"></path>
        </g>
    </g>
</svg>