<?xml version="1.0" encoding="utf-8"?>
<!-- Generator: Adobe Illustrator 18.1.1, SVG Export Plug-In . SVG Version: 6.00 Build 0)  -->
<svg version="1.1" id="レイヤー_1" xmlns="http://www.w3.org/2000/svg" xmlns:xlink="http://www.w3.org/1999/xlink" x="0px"
	 y="0px" viewBox="0 0 128 56" enable-background="new 0 0 128 56" xml:space="preserve">
<g id="レイヤー_2">
	<g>
		<path fill="#FFFFFF" d="M22.1,33.7h14.6c0,0.3,0,0.6,0,1.1c0.1,1.2,0.1,2,0.1,2.4c0,5.2-1.5,9.2-4.5,12.1c-3,2.9-7.2,4.3-12.6,4.3
			c-3,0-5.7-0.4-8.1-1.3s-4.4-2.2-6.2-4c-1.7-1.8-3.1-3.9-4-6.3S0,37,0,34.2c0-2.8,0.5-5.4,1.4-7.7c1-2.4,2.4-4.4,4.2-6.2
			c1.8-1.8,3.9-3.1,6.3-4c2.4-0.9,5-1.4,7.8-1.4c2.9,0,5.5,0.5,7.8,1.6c2.3,1.1,4.3,2.7,6.1,4.9l-4.4,3.3c-1.2-1.4-2.6-2.5-4.2-3.2
			c-1.6-0.7-3.3-1.1-5.2-1.1c-4,0-7.3,1.3-9.8,3.8c-2.5,2.6-3.8,5.9-3.8,10c0,4.2,1.3,7.6,3.8,10.2c2.5,2.6,5.8,3.9,9.9,3.9
			c3.4,0,6.1-0.8,8.1-2.4c2-1.6,3-3.8,3-6.5v-0.5h-8.9V33.7z"/>
		<path fill="#FFFFFF" d="M66,41.5H46.9c0.1,2.2,0.8,4,2,5.2c1.2,1.3,2.8,1.9,4.8,1.9c1.8,0,3.2-0.4,4.4-1.1
			c1.2-0.7,2.2-1.9,3.1-3.6l4.6,2.6c-1.3,2.4-3,4.2-5,5.4c-2,1.2-4.3,1.8-7,1.8c-3.8,0-6.9-1.2-9.2-3.5c-2.3-2.3-3.4-5.5-3.4-9.4
			c0-3.8,1.2-6.8,3.5-9.2c2.3-2.4,5.4-3.6,9-3.6c3.9,0,6.9,1.1,9,3.3c2.2,2.2,3.2,5.3,3.2,9.3V41.5z M60.3,37.8
			c-0.2-1.7-0.9-3-2-3.9c-1.1-0.9-2.6-1.3-4.5-1.3c-1.8,0-3.2,0.4-4.3,1.3c-1.1,0.9-1.9,2.2-2.3,4H60.3z"/>
		<path fill="#FFFFFF" d="M72.5,52.6V33.5h-4.2v-4.8h4.2v-9.1H78v9.1h4.2v4.8H78v19.1H72.5z"/>
		<path fill="#FFFFFF" d="M116.3,52.6V33.5h-4.2v-4.8h4.2v-9.1h5.5v9.1h4.2v4.8h-4.2v19.1H116.3z"/>
	</g>
	<circle fill="#FFFF00" cx="105.6" cy="17.8" r="5"/>
	<line fill="none" stroke="#FFFF00" stroke-linecap="round" x1="105.5" y1="9.3" x2="105.5" y2="2.8"/>
	<line fill="none" stroke="#FFFF00" stroke-linecap="round" x1="110.5" y1="10.7" x2="115.1" y2="5.8"/>
	<line fill="none" stroke="#FFFF00" stroke-linecap="round" x1="95.9" y1="5.7" x2="100.5" y2="10.6"/>
	<rect x="102.7" y="28.7" fill="#FFFFFF" width="5.5" height="1.8"/>
	<rect x="102.7" y="31.8" fill="#FFFFFF" width="5.5" height="1.8"/>
	<rect x="102.7" y="34.8" fill="#FFFFFF" width="5.5" height="17.9"/>
</g>
</svg>
