<?xml version="1.0" encoding="UTF-8"?>
<svg width="128px" height="114px" viewBox="0 0 128 114" version="1.1" xmlns="http://www.w3.org/2000/svg" xmlns:xlink="http://www.w3.org/1999/xlink">
    <!-- Generator: Sketch 48.2 (47327) - http://www.bohemiancoding.com/sketch -->
    <title>Group 12</title>
    <desc>Created with Sketch.</desc>
    <defs>
        <linearGradient x1="50%" y1="0%" x2="50%" y2="100%" id="linearGradient-1">
            <stop stop-color="#4E7384" offset="0%"></stop>
            <stop stop-color="#263F4D" offset="100%"></stop>
        </linearGradient>
    </defs>
    <g id="meltline_design" stroke="none" stroke-width="1" fill="none" fill-rule="evenodd" transform="translate(-706.000000, -2301.000000)">
        <g id="point" transform="translate(257.000000, 2011.000000)">
            <g id="Group-13" transform="translate(88.000000, 226.000000)">
                <g id="Group-12" transform="translate(361.000000, 64.000000)">
                    <path d="M100.32218,67 L89.8287928,67 C88.6525053,77.2384188 81.5289384,85.6677222 72,88.7460025 L72,99 C72,100.656854 70.6568542,102 69,102 C67.3431458,102 66,100.656854 66,99 L66,89.9242207 C65.3399168,89.9744341 64.672944,90 64,90 C63.6651481,90 63.3317747,89.9936699 62.9999929,89.981123 L63,107 C63,108.656854 61.6568542,110 60,110 C58.3431458,110 57,108.656854 57,107 L57,89.0468338 C46.9723443,86.2502478 39.3882916,77.5935147 38.1712072,67 L27.6778205,67 C26.30448,73.290364 20.7022372,78 14,78 C6.2680135,78 0,71.7319865 0,64 C0,56.2680135 6.2680135,50 14,50 C20.7022372,50 26.30448,54.709636 27.6778205,61 L38.1712072,61 C39.5455148,49.0380127 49.0380127,39.5455148 61,38.1712072 L61,27.6778205 C54.709636,26.30448 50,20.7022372 50,14 C50,6.2680135 56.2680135,0 64,0 C71.7319865,0 78,6.2680135 78,14 C78,20.7022372 73.290364,26.30448 67,27.6778205 L67,38.1712072 C78.9619873,39.5455148 88.4544852,49.0380127 89.8287928,61 L100.32218,61 C101.69552,54.709636 107.297763,50 114,50 C121.731986,50 128,56.2680135 128,64 C128,71.7319865 121.731986,78 114,78 C107.297763,78 101.69552,73.290364 100.32218,67 Z" id="Combined-Shape" fill="url(#linearGradient-1)"></path>
                    <path d="M69,113.076923 C70.6568542,113.076923 72,111.722408 72,110.091973 C72,109.005017 71,107.307692 69,105 C67,107.295621 66,108.992945 66,110.091973 C66,111.740516 67.3431458,113.076923 69,113.076923 Z" id="Oval-3" fill="#263F4D"></path>
                </g>
            </g>
        </g>
    </g>
</svg>