<?xml version="1.0" encoding="UTF-8"?>
<svg width="128px" height="80px" viewBox="0 0 128 80" version="1.1" xmlns="http://www.w3.org/2000/svg" xmlns:xlink="http://www.w3.org/1999/xlink">
    <!-- Generator: Sketch 48.2 (47327) - http://www.bohemiancoding.com/sketch -->
    <title>¥0</title>
    <desc>Created with Sketch.</desc>
    <defs>
        <linearGradient x1="50%" y1="0%" x2="50%" y2="100%" id="linearGradient-1">
            <stop stop-color="#4E7384" offset="0%"></stop>
            <stop stop-color="#263F4D" offset="100%"></stop>
        </linearGradient>
    </defs>
    <g id="meltline_design" stroke="none" stroke-width="1" fill="none" fill-rule="evenodd" transform="translate(-400.000000, -2316.000000)">
        <g id="point" transform="translate(257.000000, 2011.000000)" fill="url(#linearGradient-1)">
            <g id="Group-13" transform="translate(88.000000, 226.000000)">
                <path d="M116.391154,90.7675629 L98.2957502,117.522116 L103.735473,117.522116 C105.659738,117.522116 107.269436,118.077184 108.564614,119.187337 C109.859793,120.29749 110.507372,121.666659 110.507372,123.294883 C110.507372,124.997118 109.859793,126.40329 108.564614,127.513443 C107.269436,128.623596 105.659738,129.178664 103.735473,129.178664 L93.9661752,129.178664 L93.9661752,133.508239 L103.957502,133.508239 C105.881767,133.508239 107.491465,134.063308 108.786644,135.173461 C110.081822,136.283614 110.729402,137.652782 110.729402,139.281006 C110.729402,140.983241 110.081822,142.389413 108.786644,143.499566 C107.491465,144.609719 105.881767,145.164788 103.957502,145.164788 L93.9661752,145.164788 L93.9661752,151.048569 C93.9661752,152.972834 93.2815911,154.582532 91.9124024,155.87771 C90.5432137,157.172889 88.8225024,157.820468 86.7502168,157.820468 C84.6779312,157.820468 82.9572199,157.172889 81.5880312,155.87771 C80.2188425,154.582532 79.5342585,152.972834 79.5342585,151.048569 L79.5342585,145.164788 L71.3191674,145.164788 C69.3949022,145.164788 67.7852045,144.609719 66.490026,143.499566 C65.1948475,142.389413 64.547268,140.983241 64.547268,139.281006 C64.547268,137.652782 65.1948475,136.283614 66.490026,135.173461 C67.7852045,134.063308 69.3949022,133.508239 71.3191674,133.508239 L79.5342585,133.508239 L79.5342585,129.178664 L71.0971379,129.178664 C69.1728727,129.178664 67.563175,128.623596 66.2679965,127.513443 C64.972818,126.40329 64.3252385,124.997118 64.3252385,123.294883 C64.3252385,121.666659 64.972818,120.29749 66.2679965,119.187337 C67.563175,118.077184 69.1728727,117.522116 71.0971379,117.522116 L75.9817866,117.522116 L56.9982654,91.7666956 C55.6660818,89.9904508 55,88.2512372 55,86.5490026 C55,84.6987476 55.8511045,83.1075522 57.5533391,81.7753686 C59.2555737,80.443185 60.9947873,79.7771032 62.7710321,79.7771032 C64.9913381,79.7771032 66.8045608,80.8132305 68.2107546,82.885516 L87.3052905,112.415438 L105.400694,83.1075455 C106.066786,82.0714027 106.899388,81.2573028 107.898526,80.6652212 C108.897663,80.0731396 109.915288,79.7771032 110.951431,79.7771032 C112.727676,79.7771032 114.281867,80.443185 115.61405,81.7753686 C116.946234,83.1075522 117.612316,84.7357522 117.612316,86.6600173 C117.612316,88.1402213 117.205266,89.5093895 116.391154,90.7675629 Z M137.317433,153.934952 C132.839816,150.604493 129.4539,145.923418 127.159584,139.891587 C124.865268,133.859756 123.718127,126.884399 123.718127,118.965308 C123.718127,111.046217 124.865268,104.07086 127.159584,98.0390286 C129.4539,92.0071974 132.839816,87.3261225 137.317433,83.9956635 C141.79505,80.6652045 147.142207,79 153.359063,79 C159.57592,79 164.923077,80.6652045 169.400694,83.9956635 C173.878311,87.3261225 177.264227,92.0071974 179.558543,98.0390286 C181.852859,104.07086 183,111.046217 183,118.965308 C183,126.884399 181.852859,133.859756 179.558543,139.891587 C177.264227,145.923418 173.878311,150.604493 169.400694,153.934952 C164.923077,157.265411 159.57592,158.930616 153.359063,158.930616 C147.142207,158.930616 141.79505,157.265411 137.317433,153.934952 Z M164.516045,138.836947 C167.217417,134.322325 168.568083,127.698511 168.568083,118.965308 C168.568083,110.232104 167.217417,103.608291 164.516045,99.0936687 C161.814673,94.5790465 158.095716,92.3217693 153.359063,92.3217693 C148.622411,92.3217693 144.903454,94.5790465 142.202082,99.0936687 C139.500709,103.608291 138.150043,110.232104 138.150043,118.965308 C138.150043,127.698511 139.500709,134.322325 142.202082,138.836947 C144.903454,143.351569 148.622411,145.608846 153.359063,145.608846 C158.095716,145.608846 161.814673,143.351569 164.516045,138.836947 Z" id="¥0"></path>
            </g>
        </g>
    </g>
</svg>