<?xml version="1.0" encoding="UTF-8"?>
<svg width="105px" height="121px" viewBox="0 0 105 121" version="1.1" xmlns="http://www.w3.org/2000/svg" xmlns:xlink="http://www.w3.org/1999/xlink">
    <!-- Generator: Sketch 48.2 (47327) - http://www.bohemiancoding.com/sketch -->
    <title>Combined Shape</title>
    <desc>Created with Sketch.</desc>
    <defs>
        <linearGradient x1="50%" y1="0%" x2="50%" y2="100%" id="linearGradient-1">
            <stop stop-color="#4E7384" offset="0%"></stop>
            <stop stop-color="#263F4D" offset="100%"></stop>
        </linearGradient>
    </defs>
    <g id="meltline_design" stroke="none" stroke-width="1" fill="none" fill-rule="evenodd" transform="translate(-1018.000000, -2300.000000)">
        <g id="point" transform="translate(257.000000, 2011.000000)" fill="url(#linearGradient-1)">
            <g id="Group-13" transform="translate(88.000000, 226.000000)">
                <path d="M692.585714,126.021409 L692.585714,170.707143 C692.585714,173.630307 690.216021,176 687.292857,176 C684.369693,176 682,173.630307 682,170.707143 L682,132.842857 L682,72.5857143 C688.65,65.5285714 699.778571,62 715.385714,62 C738.796429,62 743.755301,72.5857143 775.642857,72.5857143 L775.642857,132.842857 C744.900391,132.842857 739.988432,122.257143 716.2,122.257143 C706.742973,122.257143 698.871544,123.511898 692.585714,126.021409 Z M728.821429,108.414286 C736.241769,108.414286 742.257143,102.398912 742.257143,94.9785714 C742.257143,87.5582313 736.241769,81.5428571 728.821429,81.5428571 C721.401088,81.5428571 715.385714,87.5582313 715.385714,94.9785714 C715.385714,102.398912 721.401088,108.414286 728.821429,108.414286 Z" id="Combined-Shape" transform="translate(728.821429, 119.000000) rotate(-12.000000) translate(-728.821429, -119.000000) "></path>
            </g>
        </g>
    </g>
</svg>